<mxfile host="app.diagrams.net" agent="Mozilla/5.0 (Windows NT 10.0; Win64; x64) AppleWebKit/537.36 (KHTML, like Gecko) Chrome/137.0.0.0 Safari/537.36" version="27.1.1">
  <diagram name="Page-1" id="74e2e168-ea6b-b213-b513-2b3c1d86103e">
    <mxGraphModel dx="1296" dy="1562" grid="1" gridSize="10" guides="1" tooltips="1" connect="1" arrows="1" fold="1" page="1" pageScale="1" pageWidth="1100" pageHeight="850" background="none" math="0" shadow="0">
      <root>
        <mxCell id="0" />
        <mxCell id="1" parent="0" />
        <mxCell id="77e6c97f196da883-1" value="Pool" style="swimlane;html=1;childLayout=stackLayout;startSize=20;rounded=0;shadow=0;labelBackgroundColor=none;strokeWidth=1;fontFamily=Verdana;fontSize=8;align=center;" parent="1" vertex="1">
          <mxGeometry x="180" y="-60" width="870" height="1190" as="geometry" />
        </mxCell>
        <mxCell id="77e6c97f196da883-40" style="edgeStyle=orthogonalEdgeStyle;rounded=1;html=1;labelBackgroundColor=none;startArrow=none;startFill=0;startSize=5;endArrow=classicThin;endFill=1;endSize=5;jettySize=auto;orthogonalLoop=1;strokeWidth=1;fontFamily=Verdana;fontSize=8" parent="77e6c97f196da883-1" edge="1">
          <mxGeometry relative="1" as="geometry">
            <mxPoint x="540" y="20" as="sourcePoint" />
            <mxPoint x="540" y="20" as="targetPoint" />
          </mxGeometry>
        </mxCell>
        <mxCell id="GCUTKhbAVa57AztuCdu1-53" value="" style="edgeStyle=orthogonalEdgeStyle;rounded=0;orthogonalLoop=1;jettySize=auto;html=1;entryX=0;entryY=0.5;entryDx=0;entryDy=0;" edge="1" parent="77e6c97f196da883-1" source="GCUTKhbAVa57AztuCdu1-49" target="GCUTKhbAVa57AztuCdu1-57">
          <mxGeometry relative="1" as="geometry">
            <mxPoint x="340" y="595" as="targetPoint" />
          </mxGeometry>
        </mxCell>
        <mxCell id="77e6c97f196da883-2" value="Cliente" style="swimlane;html=1;startSize=20;" parent="77e6c97f196da883-1" vertex="1">
          <mxGeometry y="20" width="380" height="1170" as="geometry" />
        </mxCell>
        <mxCell id="GCUTKhbAVa57AztuCdu1-7" value="" style="edgeStyle=orthogonalEdgeStyle;rounded=0;orthogonalLoop=1;jettySize=auto;html=1;" edge="1" parent="77e6c97f196da883-2" source="GCUTKhbAVa57AztuCdu1-2" target="GCUTKhbAVa57AztuCdu1-6">
          <mxGeometry relative="1" as="geometry" />
        </mxCell>
        <mxCell id="GCUTKhbAVa57AztuCdu1-8" value="No" style="edgeLabel;html=1;align=center;verticalAlign=middle;resizable=0;points=[];" vertex="1" connectable="0" parent="GCUTKhbAVa57AztuCdu1-7">
          <mxGeometry x="-0.0667" y="1" relative="1" as="geometry">
            <mxPoint as="offset" />
          </mxGeometry>
        </mxCell>
        <mxCell id="GCUTKhbAVa57AztuCdu1-45" value="" style="edgeStyle=orthogonalEdgeStyle;rounded=0;orthogonalLoop=1;jettySize=auto;html=1;" edge="1" parent="77e6c97f196da883-2" source="GCUTKhbAVa57AztuCdu1-115" target="GCUTKhbAVa57AztuCdu1-44">
          <mxGeometry relative="1" as="geometry" />
        </mxCell>
        <mxCell id="GCUTKhbAVa57AztuCdu1-116" value="Sí" style="edgeLabel;html=1;align=center;verticalAlign=middle;resizable=0;points=[];" vertex="1" connectable="0" parent="GCUTKhbAVa57AztuCdu1-45">
          <mxGeometry x="0.0857" y="-2" relative="1" as="geometry">
            <mxPoint as="offset" />
          </mxGeometry>
        </mxCell>
        <mxCell id="GCUTKhbAVa57AztuCdu1-2" value="¿Está registrado?" style="rhombus;whiteSpace=wrap;html=1;fillColor=#fff2cc;strokeColor=#d6b656;" vertex="1" parent="77e6c97f196da883-2">
          <mxGeometry x="42.5" y="325" width="80" height="80" as="geometry" />
        </mxCell>
        <mxCell id="GCUTKhbAVa57AztuCdu1-42" value="" style="edgeStyle=orthogonalEdgeStyle;rounded=0;orthogonalLoop=1;jettySize=auto;html=1;" edge="1" parent="77e6c97f196da883-2" source="GCUTKhbAVa57AztuCdu1-3" target="GCUTKhbAVa57AztuCdu1-22">
          <mxGeometry relative="1" as="geometry" />
        </mxCell>
        <mxCell id="GCUTKhbAVa57AztuCdu1-3" value="Se dirige al incio y da click a &quot;Solicitar crédito&quot;" style="rounded=1;whiteSpace=wrap;html=1;fillColor=#dae8fc;strokeColor=#6c8ebf;" vertex="1" parent="77e6c97f196da883-2">
          <mxGeometry x="22.5" y="725" width="120" height="60" as="geometry" />
        </mxCell>
        <mxCell id="GCUTKhbAVa57AztuCdu1-15" style="edgeStyle=orthogonalEdgeStyle;rounded=0;orthogonalLoop=1;jettySize=auto;html=1;entryX=1;entryY=0.5;entryDx=0;entryDy=0;" edge="1" parent="77e6c97f196da883-2" source="GCUTKhbAVa57AztuCdu1-6" target="GCUTKhbAVa57AztuCdu1-12">
          <mxGeometry relative="1" as="geometry">
            <Array as="points">
              <mxPoint x="230" y="255" />
            </Array>
          </mxGeometry>
        </mxCell>
        <mxCell id="GCUTKhbAVa57AztuCdu1-6" value="Va al registro y crea una cuenta" style="rounded=1;whiteSpace=wrap;html=1;fillColor=#dae8fc;strokeColor=#6c8ebf;" vertex="1" parent="77e6c97f196da883-2">
          <mxGeometry x="182.5" y="335" width="120" height="60" as="geometry" />
        </mxCell>
        <mxCell id="GCUTKhbAVa57AztuCdu1-14" value="" style="edgeStyle=orthogonalEdgeStyle;rounded=0;orthogonalLoop=1;jettySize=auto;html=1;" edge="1" parent="77e6c97f196da883-2" source="GCUTKhbAVa57AztuCdu1-12" target="GCUTKhbAVa57AztuCdu1-2">
          <mxGeometry relative="1" as="geometry" />
        </mxCell>
        <mxCell id="GCUTKhbAVa57AztuCdu1-12" value="Se dirige a &quot;inciar sesión&quot;" style="rounded=1;whiteSpace=wrap;html=1;fillColor=#dae8fc;strokeColor=#6c8ebf;" vertex="1" parent="77e6c97f196da883-2">
          <mxGeometry x="22.5" y="225" width="120" height="60" as="geometry" />
        </mxCell>
        <mxCell id="GCUTKhbAVa57AztuCdu1-25" value="" style="edgeStyle=orthogonalEdgeStyle;rounded=0;orthogonalLoop=1;jettySize=auto;html=1;" edge="1" parent="77e6c97f196da883-2" source="GCUTKhbAVa57AztuCdu1-22" target="GCUTKhbAVa57AztuCdu1-24">
          <mxGeometry relative="1" as="geometry" />
        </mxCell>
        <mxCell id="GCUTKhbAVa57AztuCdu1-30" value="" style="edgeStyle=orthogonalEdgeStyle;rounded=0;orthogonalLoop=1;jettySize=auto;html=1;" edge="1" parent="77e6c97f196da883-2" source="GCUTKhbAVa57AztuCdu1-22" target="GCUTKhbAVa57AztuCdu1-24">
          <mxGeometry relative="1" as="geometry" />
        </mxCell>
        <mxCell id="GCUTKhbAVa57AztuCdu1-31" value="No" style="edgeLabel;html=1;align=center;verticalAlign=middle;resizable=0;points=[];" vertex="1" connectable="0" parent="GCUTKhbAVa57AztuCdu1-30">
          <mxGeometry x="-0.08" y="-3" relative="1" as="geometry">
            <mxPoint as="offset" />
          </mxGeometry>
        </mxCell>
        <mxCell id="GCUTKhbAVa57AztuCdu1-43" value="" style="edgeStyle=orthogonalEdgeStyle;rounded=0;orthogonalLoop=1;jettySize=auto;html=1;" edge="1" parent="77e6c97f196da883-2" source="GCUTKhbAVa57AztuCdu1-22" target="GCUTKhbAVa57AztuCdu1-33">
          <mxGeometry relative="1" as="geometry" />
        </mxCell>
        <mxCell id="GCUTKhbAVa57AztuCdu1-22" value="¿Tiene una solicitud en curso?" style="rhombus;whiteSpace=wrap;html=1;fillColor=#fff2cc;strokeColor=#d6b656;" vertex="1" parent="77e6c97f196da883-2">
          <mxGeometry x="32.5" y="825" width="100" height="80" as="geometry" />
        </mxCell>
        <mxCell id="GCUTKhbAVa57AztuCdu1-113" style="edgeStyle=orthogonalEdgeStyle;rounded=0;orthogonalLoop=1;jettySize=auto;html=1;entryX=1;entryY=0.5;entryDx=0;entryDy=0;" edge="1" parent="77e6c97f196da883-2" source="GCUTKhbAVa57AztuCdu1-24" target="GCUTKhbAVa57AztuCdu1-111">
          <mxGeometry relative="1" as="geometry">
            <Array as="points">
              <mxPoint x="260" y="930" />
            </Array>
          </mxGeometry>
        </mxCell>
        <mxCell id="GCUTKhbAVa57AztuCdu1-24" value="Completa todos los pasos, llena todos los formularios, y espera correo y notificación" style="rounded=1;whiteSpace=wrap;html=1;fillColor=#dae8fc;strokeColor=#6c8ebf;" vertex="1" parent="77e6c97f196da883-2">
          <mxGeometry x="217.5" y="825" width="120" height="80" as="geometry" />
        </mxCell>
        <mxCell id="GCUTKhbAVa57AztuCdu1-38" value="" style="edgeStyle=orthogonalEdgeStyle;rounded=0;orthogonalLoop=1;jettySize=auto;html=1;" edge="1" parent="77e6c97f196da883-2" source="GCUTKhbAVa57AztuCdu1-33" target="GCUTKhbAVa57AztuCdu1-37">
          <mxGeometry relative="1" as="geometry" />
        </mxCell>
        <mxCell id="GCUTKhbAVa57AztuCdu1-39" value="No" style="edgeLabel;html=1;align=center;verticalAlign=middle;resizable=0;points=[];" vertex="1" connectable="0" parent="GCUTKhbAVa57AztuCdu1-38">
          <mxGeometry x="-0.4286" relative="1" as="geometry">
            <mxPoint as="offset" />
          </mxGeometry>
        </mxCell>
        <mxCell id="GCUTKhbAVa57AztuCdu1-33" value="¿Quiere editar la información?" style="rhombus;whiteSpace=wrap;html=1;fillColor=#fff2cc;strokeColor=#d6b656;" vertex="1" parent="77e6c97f196da883-2">
          <mxGeometry x="20" y="955" width="125" height="80" as="geometry" />
        </mxCell>
        <mxCell id="GCUTKhbAVa57AztuCdu1-96" style="edgeStyle=orthogonalEdgeStyle;rounded=0;orthogonalLoop=1;jettySize=auto;html=1;entryX=0.5;entryY=1;entryDx=0;entryDy=0;exitX=0.5;exitY=1;exitDx=0;exitDy=0;" edge="1" parent="77e6c97f196da883-2" source="GCUTKhbAVa57AztuCdu1-33" target="GCUTKhbAVa57AztuCdu1-24">
          <mxGeometry relative="1" as="geometry">
            <mxPoint x="135" y="1109.9999999999995" as="sourcePoint" />
            <Array as="points">
              <mxPoint x="83" y="1110" />
              <mxPoint x="350" y="1110" />
              <mxPoint x="350" y="920" />
              <mxPoint x="278" y="920" />
            </Array>
          </mxGeometry>
        </mxCell>
        <mxCell id="GCUTKhbAVa57AztuCdu1-98" value="Sí" style="edgeLabel;html=1;align=center;verticalAlign=middle;resizable=0;points=[];" vertex="1" connectable="0" parent="GCUTKhbAVa57AztuCdu1-96">
          <mxGeometry x="-0.5087" y="2" relative="1" as="geometry">
            <mxPoint as="offset" />
          </mxGeometry>
        </mxCell>
        <mxCell id="GCUTKhbAVa57AztuCdu1-112" style="edgeStyle=orthogonalEdgeStyle;rounded=0;orthogonalLoop=1;jettySize=auto;html=1;" edge="1" parent="77e6c97f196da883-2" source="GCUTKhbAVa57AztuCdu1-37" target="GCUTKhbAVa57AztuCdu1-111">
          <mxGeometry relative="1" as="geometry">
            <Array as="points">
              <mxPoint x="260" y="980" />
              <mxPoint x="173" y="980" />
            </Array>
          </mxGeometry>
        </mxCell>
        <mxCell id="GCUTKhbAVa57AztuCdu1-37" value="Salta todos los pasos y verifica la información." style="rounded=1;whiteSpace=wrap;html=1;fillColor=#dae8fc;strokeColor=#6c8ebf;" vertex="1" parent="77e6c97f196da883-2">
          <mxGeometry x="200" y="1020" width="120" height="60" as="geometry" />
        </mxCell>
        <mxCell id="GCUTKhbAVa57AztuCdu1-47" value="" style="edgeStyle=orthogonalEdgeStyle;rounded=0;orthogonalLoop=1;jettySize=auto;html=1;" edge="1" parent="77e6c97f196da883-2" source="GCUTKhbAVa57AztuCdu1-44" target="GCUTKhbAVa57AztuCdu1-3">
          <mxGeometry relative="1" as="geometry" />
        </mxCell>
        <mxCell id="GCUTKhbAVa57AztuCdu1-48" value="Sí" style="edgeLabel;html=1;align=center;verticalAlign=middle;resizable=0;points=[];" vertex="1" connectable="0" parent="GCUTKhbAVa57AztuCdu1-47">
          <mxGeometry x="-0.2" relative="1" as="geometry">
            <mxPoint as="offset" />
          </mxGeometry>
        </mxCell>
        <mxCell id="GCUTKhbAVa57AztuCdu1-50" value="" style="edgeStyle=orthogonalEdgeStyle;rounded=0;orthogonalLoop=1;jettySize=auto;html=1;" edge="1" parent="77e6c97f196da883-2" source="GCUTKhbAVa57AztuCdu1-44" target="GCUTKhbAVa57AztuCdu1-49">
          <mxGeometry relative="1" as="geometry" />
        </mxCell>
        <mxCell id="GCUTKhbAVa57AztuCdu1-51" value="No" style="edgeLabel;html=1;align=center;verticalAlign=middle;resizable=0;points=[];" vertex="1" connectable="0" parent="GCUTKhbAVa57AztuCdu1-50">
          <mxGeometry x="-0.0667" relative="1" as="geometry">
            <mxPoint as="offset" />
          </mxGeometry>
        </mxCell>
        <mxCell id="GCUTKhbAVa57AztuCdu1-44" value="Sabe manejar la plataforma" style="rhombus;whiteSpace=wrap;html=1;fillColor=#fff2cc;strokeColor=#d6b656;" vertex="1" parent="77e6c97f196da883-2">
          <mxGeometry x="27.5" y="570" width="110" height="90" as="geometry" />
        </mxCell>
        <mxCell id="GCUTKhbAVa57AztuCdu1-49" value="Solicita ayuda a un asesor, por llamada o de forma física" style="rounded=1;whiteSpace=wrap;html=1;fillColor=#dae8fc;strokeColor=#6c8ebf;" vertex="1" parent="77e6c97f196da883-2">
          <mxGeometry x="182.5" y="585" width="120" height="60" as="geometry" />
        </mxCell>
        <mxCell id="GCUTKhbAVa57AztuCdu1-65" value="" style="edgeStyle=orthogonalEdgeStyle;rounded=0;orthogonalLoop=1;jettySize=auto;html=1;" edge="1" parent="77e6c97f196da883-2" source="GCUTKhbAVa57AztuCdu1-60" target="GCUTKhbAVa57AztuCdu1-64">
          <mxGeometry relative="1" as="geometry" />
        </mxCell>
        <mxCell id="GCUTKhbAVa57AztuCdu1-60" value="Inicio" style="ellipse;whiteSpace=wrap;html=1;aspect=fixed;fillColor=#d5e8d4;strokeColor=#82b366;" vertex="1" parent="77e6c97f196da883-2">
          <mxGeometry x="42.5" y="45" width="80" height="80" as="geometry" />
        </mxCell>
        <mxCell id="GCUTKhbAVa57AztuCdu1-63" value="" style="edgeStyle=orthogonalEdgeStyle;rounded=0;orthogonalLoop=1;jettySize=auto;html=1;" edge="1" parent="77e6c97f196da883-2" source="GCUTKhbAVa57AztuCdu1-61" target="GCUTKhbAVa57AztuCdu1-12">
          <mxGeometry relative="1" as="geometry" />
        </mxCell>
        <mxCell id="GCUTKhbAVa57AztuCdu1-61" value="Entra a la app" style="rounded=1;whiteSpace=wrap;html=1;fillColor=#dae8fc;strokeColor=#6c8ebf;" vertex="1" parent="77e6c97f196da883-2">
          <mxGeometry x="22.5" y="140" width="120" height="60" as="geometry" />
        </mxCell>
        <mxCell id="GCUTKhbAVa57AztuCdu1-66" style="edgeStyle=orthogonalEdgeStyle;rounded=0;orthogonalLoop=1;jettySize=auto;html=1;entryX=1;entryY=0.5;entryDx=0;entryDy=0;" edge="1" parent="77e6c97f196da883-2" source="GCUTKhbAVa57AztuCdu1-64" target="GCUTKhbAVa57AztuCdu1-61">
          <mxGeometry relative="1" as="geometry">
            <Array as="points">
              <mxPoint x="213" y="170" />
            </Array>
          </mxGeometry>
        </mxCell>
        <mxCell id="GCUTKhbAVa57AztuCdu1-67" value="Sí" style="edgeLabel;html=1;align=center;verticalAlign=middle;resizable=0;points=[];" vertex="1" connectable="0" parent="GCUTKhbAVa57AztuCdu1-66">
          <mxGeometry x="-0.5398" y="1" relative="1" as="geometry">
            <mxPoint as="offset" />
          </mxGeometry>
        </mxCell>
        <mxCell id="GCUTKhbAVa57AztuCdu1-64" value="¿Sabe usar aplicaciones web?" style="rhombus;whiteSpace=wrap;html=1;fillColor=#fff2cc;strokeColor=#d6b656;" vertex="1" parent="77e6c97f196da883-2">
          <mxGeometry x="167.5" y="40" width="90" height="90" as="geometry" />
        </mxCell>
        <mxCell id="GCUTKhbAVa57AztuCdu1-68" style="edgeStyle=orthogonalEdgeStyle;rounded=0;orthogonalLoop=1;jettySize=auto;html=1;entryX=0.5;entryY=0;entryDx=0;entryDy=0;" edge="1" parent="77e6c97f196da883-2" source="GCUTKhbAVa57AztuCdu1-64" target="GCUTKhbAVa57AztuCdu1-49">
          <mxGeometry relative="1" as="geometry">
            <mxPoint x="230" y="560" as="targetPoint" />
            <Array as="points">
              <mxPoint x="350" y="85" />
              <mxPoint x="350" y="500" />
              <mxPoint x="243" y="500" />
              <mxPoint x="243" y="585" />
            </Array>
          </mxGeometry>
        </mxCell>
        <mxCell id="GCUTKhbAVa57AztuCdu1-70" value="No" style="edgeLabel;html=1;align=center;verticalAlign=middle;resizable=0;points=[];" vertex="1" connectable="0" parent="GCUTKhbAVa57AztuCdu1-68">
          <mxGeometry x="-0.8417" y="3" relative="1" as="geometry">
            <mxPoint as="offset" />
          </mxGeometry>
        </mxCell>
        <mxCell id="GCUTKhbAVa57AztuCdu1-111" value="Fin" style="ellipse;whiteSpace=wrap;html=1;aspect=fixed;fillColor=#f8cecc;strokeColor=#b85450;" vertex="1" parent="77e6c97f196da883-2">
          <mxGeometry x="132.5" y="890" width="80" height="80" as="geometry" />
        </mxCell>
        <mxCell id="GCUTKhbAVa57AztuCdu1-114" value="" style="edgeStyle=orthogonalEdgeStyle;rounded=0;orthogonalLoop=1;jettySize=auto;html=1;" edge="1" parent="77e6c97f196da883-2" source="GCUTKhbAVa57AztuCdu1-2" target="GCUTKhbAVa57AztuCdu1-115">
          <mxGeometry relative="1" as="geometry">
            <mxPoint x="263" y="435" as="sourcePoint" />
            <mxPoint x="263" y="560" as="targetPoint" />
          </mxGeometry>
        </mxCell>
        <mxCell id="GCUTKhbAVa57AztuCdu1-118" value="" style="edgeStyle=orthogonalEdgeStyle;rounded=0;orthogonalLoop=1;jettySize=auto;html=1;" edge="1" parent="77e6c97f196da883-2" source="GCUTKhbAVa57AztuCdu1-115" target="GCUTKhbAVa57AztuCdu1-117">
          <mxGeometry relative="1" as="geometry" />
        </mxCell>
        <mxCell id="GCUTKhbAVa57AztuCdu1-119" value="No" style="edgeLabel;html=1;align=center;verticalAlign=middle;resizable=0;points=[];" vertex="1" connectable="0" parent="GCUTKhbAVa57AztuCdu1-118">
          <mxGeometry x="0.0193" y="-1" relative="1" as="geometry">
            <mxPoint as="offset" />
          </mxGeometry>
        </mxCell>
        <mxCell id="GCUTKhbAVa57AztuCdu1-115" value="¿Desea solicitar un crédito?" style="rhombus;whiteSpace=wrap;html=1;fillColor=#fff2cc;strokeColor=#d6b656;" vertex="1" parent="77e6c97f196da883-2">
          <mxGeometry x="42.5" y="450" width="80" height="80" as="geometry" />
        </mxCell>
        <mxCell id="GCUTKhbAVa57AztuCdu1-117" value="Fin" style="ellipse;whiteSpace=wrap;html=1;fillColor=#f8cecc;strokeColor=#b85450;" vertex="1" parent="77e6c97f196da883-2">
          <mxGeometry x="160" y="405" width="80" height="80" as="geometry" />
        </mxCell>
        <mxCell id="77e6c97f196da883-3" value="Empleado" style="swimlane;html=1;startSize=20;" parent="77e6c97f196da883-1" vertex="1">
          <mxGeometry x="380" y="20" width="490" height="1170" as="geometry" />
        </mxCell>
        <mxCell id="GCUTKhbAVa57AztuCdu1-72" value="" style="edgeStyle=orthogonalEdgeStyle;rounded=0;orthogonalLoop=1;jettySize=auto;html=1;" edge="1" parent="77e6c97f196da883-3" source="GCUTKhbAVa57AztuCdu1-52" target="GCUTKhbAVa57AztuCdu1-71">
          <mxGeometry relative="1" as="geometry" />
        </mxCell>
        <mxCell id="GCUTKhbAVa57AztuCdu1-74" value="Sí" style="edgeLabel;html=1;align=center;verticalAlign=middle;resizable=0;points=[];" vertex="1" connectable="0" parent="GCUTKhbAVa57AztuCdu1-72">
          <mxGeometry x="-0.3534" y="1" relative="1" as="geometry">
            <mxPoint as="offset" />
          </mxGeometry>
        </mxCell>
        <mxCell id="GCUTKhbAVa57AztuCdu1-77" value="" style="edgeStyle=orthogonalEdgeStyle;rounded=0;orthogonalLoop=1;jettySize=auto;html=1;" edge="1" parent="77e6c97f196da883-3" source="GCUTKhbAVa57AztuCdu1-52" target="GCUTKhbAVa57AztuCdu1-76">
          <mxGeometry relative="1" as="geometry" />
        </mxCell>
        <mxCell id="GCUTKhbAVa57AztuCdu1-78" value="No" style="edgeLabel;html=1;align=center;verticalAlign=middle;resizable=0;points=[];" vertex="1" connectable="0" parent="GCUTKhbAVa57AztuCdu1-77">
          <mxGeometry x="-0.2159" relative="1" as="geometry">
            <mxPoint as="offset" />
          </mxGeometry>
        </mxCell>
        <mxCell id="GCUTKhbAVa57AztuCdu1-52" value="¿El cliente ya tiene tiene una cuenta?" style="rhombus;whiteSpace=wrap;html=1;fillColor=#fff2cc;strokeColor=#d6b656;" vertex="1" parent="77e6c97f196da883-3">
          <mxGeometry x="190" y="527.5" width="100" height="95" as="geometry" />
        </mxCell>
        <mxCell id="GCUTKhbAVa57AztuCdu1-87" value="" style="edgeStyle=orthogonalEdgeStyle;rounded=0;orthogonalLoop=1;jettySize=auto;html=1;" edge="1" parent="77e6c97f196da883-3" source="GCUTKhbAVa57AztuCdu1-57" target="GCUTKhbAVa57AztuCdu1-81">
          <mxGeometry relative="1" as="geometry" />
        </mxCell>
        <mxCell id="GCUTKhbAVa57AztuCdu1-57" value="Inicia sesión" style="rounded=1;whiteSpace=wrap;html=1;fillColor=#dae8fc;strokeColor=#6c8ebf;" vertex="1" parent="77e6c97f196da883-3">
          <mxGeometry x="20" y="560" width="120" height="60" as="geometry" />
        </mxCell>
        <mxCell id="GCUTKhbAVa57AztuCdu1-86" value="" style="edgeStyle=orthogonalEdgeStyle;rounded=0;orthogonalLoop=1;jettySize=auto;html=1;" edge="1" parent="77e6c97f196da883-3" source="GCUTKhbAVa57AztuCdu1-71" target="GCUTKhbAVa57AztuCdu1-85">
          <mxGeometry relative="1" as="geometry" />
        </mxCell>
        <mxCell id="GCUTKhbAVa57AztuCdu1-71" value="Busca al cliente y selecciona &quot;Crédito&quot;" style="rounded=1;whiteSpace=wrap;html=1;fillColor=#dae8fc;strokeColor=#6c8ebf;" vertex="1" parent="77e6c97f196da883-3">
          <mxGeometry x="180" y="410" width="120" height="60" as="geometry" />
        </mxCell>
        <mxCell id="GCUTKhbAVa57AztuCdu1-79" style="edgeStyle=orthogonalEdgeStyle;rounded=0;orthogonalLoop=1;jettySize=auto;html=1;entryX=1;entryY=0.5;entryDx=0;entryDy=0;" edge="1" parent="77e6c97f196da883-3" source="GCUTKhbAVa57AztuCdu1-76" target="GCUTKhbAVa57AztuCdu1-71">
          <mxGeometry relative="1" as="geometry">
            <Array as="points">
              <mxPoint x="400" y="440" />
            </Array>
          </mxGeometry>
        </mxCell>
        <mxCell id="GCUTKhbAVa57AztuCdu1-76" value="&lt;div&gt;Selecciona &quot;Crear usuario&quot; y llena el formulario&lt;/div&gt;" style="rounded=1;whiteSpace=wrap;html=1;fillColor=#dae8fc;strokeColor=#6c8ebf;" vertex="1" parent="77e6c97f196da883-3">
          <mxGeometry x="350" y="540" width="120" height="70" as="geometry" />
        </mxCell>
        <mxCell id="GCUTKhbAVa57AztuCdu1-82" value="" style="edgeStyle=orthogonalEdgeStyle;rounded=0;orthogonalLoop=1;jettySize=auto;html=1;" edge="1" parent="77e6c97f196da883-3" source="GCUTKhbAVa57AztuCdu1-81" target="GCUTKhbAVa57AztuCdu1-52">
          <mxGeometry relative="1" as="geometry" />
        </mxCell>
        <mxCell id="GCUTKhbAVa57AztuCdu1-81" value="Se dirige a &quot;Clientes&quot;" style="rounded=1;whiteSpace=wrap;html=1;fillColor=#dae8fc;strokeColor=#6c8ebf;" vertex="1" parent="77e6c97f196da883-3">
          <mxGeometry x="20" y="660" width="120" height="60" as="geometry" />
        </mxCell>
        <mxCell id="GCUTKhbAVa57AztuCdu1-89" value="" style="edgeStyle=orthogonalEdgeStyle;rounded=0;orthogonalLoop=1;jettySize=auto;html=1;" edge="1" parent="77e6c97f196da883-3" source="GCUTKhbAVa57AztuCdu1-85" target="GCUTKhbAVa57AztuCdu1-88">
          <mxGeometry relative="1" as="geometry" />
        </mxCell>
        <mxCell id="GCUTKhbAVa57AztuCdu1-85" value="Completa el todas los pasos y llena todos los formularios con la información del cliente y advierte al cliente para que esté pendiente de su correo" style="whiteSpace=wrap;html=1;rounded=1;fillColor=#dae8fc;strokeColor=#6c8ebf;" vertex="1" parent="77e6c97f196da883-3">
          <mxGeometry x="160" y="250" width="160" height="100" as="geometry" />
        </mxCell>
        <mxCell id="GCUTKhbAVa57AztuCdu1-88" value="Fin" style="ellipse;whiteSpace=wrap;html=1;rounded=1;fillColor=#f8cecc;strokeColor=#b85450;" vertex="1" parent="77e6c97f196da883-3">
          <mxGeometry x="200" y="120" width="80" height="80" as="geometry" />
        </mxCell>
        <mxCell id="GCUTKhbAVa57AztuCdu1-92" value="" style="edgeStyle=orthogonalEdgeStyle;rounded=0;orthogonalLoop=1;jettySize=auto;html=1;" edge="1" parent="77e6c97f196da883-3" source="GCUTKhbAVa57AztuCdu1-90" target="GCUTKhbAVa57AztuCdu1-91">
          <mxGeometry relative="1" as="geometry" />
        </mxCell>
        <mxCell id="GCUTKhbAVa57AztuCdu1-90" value="Inicio" style="ellipse;whiteSpace=wrap;html=1;aspect=fixed;fillColor=#d5e8d4;strokeColor=#82b366;" vertex="1" parent="77e6c97f196da883-3">
          <mxGeometry x="200" y="1020" width="80" height="80" as="geometry" />
        </mxCell>
        <mxCell id="GCUTKhbAVa57AztuCdu1-94" value="" style="edgeStyle=orthogonalEdgeStyle;rounded=0;orthogonalLoop=1;jettySize=auto;html=1;" edge="1" parent="77e6c97f196da883-3" source="GCUTKhbAVa57AztuCdu1-91" target="GCUTKhbAVa57AztuCdu1-95">
          <mxGeometry relative="1" as="geometry">
            <mxPoint x="80.00000000000023" y="990" as="targetPoint" />
          </mxGeometry>
        </mxCell>
        <mxCell id="GCUTKhbAVa57AztuCdu1-91" value="Inicia sesión" style="rounded=1;whiteSpace=wrap;html=1;fillColor=#dae8fc;strokeColor=#6c8ebf;" vertex="1" parent="77e6c97f196da883-3">
          <mxGeometry x="20" y="1030" width="120" height="60" as="geometry" />
        </mxCell>
        <mxCell id="GCUTKhbAVa57AztuCdu1-100" value="" style="edgeStyle=orthogonalEdgeStyle;rounded=0;orthogonalLoop=1;jettySize=auto;html=1;" edge="1" parent="77e6c97f196da883-3" source="GCUTKhbAVa57AztuCdu1-95" target="GCUTKhbAVa57AztuCdu1-99">
          <mxGeometry relative="1" as="geometry" />
        </mxCell>
        <mxCell id="GCUTKhbAVa57AztuCdu1-95" value="Se dirige a &quot;Solicitudes&quot;" style="rounded=1;whiteSpace=wrap;html=1;fillColor=#dae8fc;strokeColor=#6c8ebf;" vertex="1" parent="77e6c97f196da883-3">
          <mxGeometry x="20" y="920" width="120" height="60" as="geometry" />
        </mxCell>
        <mxCell id="GCUTKhbAVa57AztuCdu1-101" value="" style="edgeStyle=orthogonalEdgeStyle;rounded=0;orthogonalLoop=1;jettySize=auto;html=1;entryX=0.018;entryY=0.391;entryDx=0;entryDy=0;entryPerimeter=0;" edge="1" parent="77e6c97f196da883-3" source="GCUTKhbAVa57AztuCdu1-99" target="GCUTKhbAVa57AztuCdu1-102">
          <mxGeometry relative="1" as="geometry">
            <mxPoint x="120" y="760" as="targetPoint" />
            <Array as="points">
              <mxPoint x="80" y="753" />
              <mxPoint x="132" y="753" />
            </Array>
          </mxGeometry>
        </mxCell>
        <mxCell id="GCUTKhbAVa57AztuCdu1-105" value="Sí" style="edgeLabel;html=1;align=center;verticalAlign=middle;resizable=0;points=[];" vertex="1" connectable="0" parent="GCUTKhbAVa57AztuCdu1-101">
          <mxGeometry x="0.1532" y="1" relative="1" as="geometry">
            <mxPoint as="offset" />
          </mxGeometry>
        </mxCell>
        <mxCell id="GCUTKhbAVa57AztuCdu1-108" value="" style="edgeStyle=orthogonalEdgeStyle;rounded=0;orthogonalLoop=1;jettySize=auto;html=1;" edge="1" parent="77e6c97f196da883-3" source="GCUTKhbAVa57AztuCdu1-99" target="GCUTKhbAVa57AztuCdu1-107">
          <mxGeometry relative="1" as="geometry" />
        </mxCell>
        <mxCell id="GCUTKhbAVa57AztuCdu1-109" value="No" style="edgeLabel;html=1;align=center;verticalAlign=middle;resizable=0;points=[];" vertex="1" connectable="0" parent="GCUTKhbAVa57AztuCdu1-108">
          <mxGeometry x="0.0182" y="-1" relative="1" as="geometry">
            <mxPoint as="offset" />
          </mxGeometry>
        </mxCell>
        <mxCell id="GCUTKhbAVa57AztuCdu1-99" value="¿Hay solicitudes pendientes?" style="rhombus;whiteSpace=wrap;html=1;fillColor=#fff2cc;strokeColor=#d6b656;" vertex="1" parent="77e6c97f196da883-3">
          <mxGeometry x="30" y="790" width="100" height="100" as="geometry" />
        </mxCell>
        <mxCell id="GCUTKhbAVa57AztuCdu1-120" style="edgeStyle=orthogonalEdgeStyle;rounded=0;orthogonalLoop=1;jettySize=auto;html=1;" edge="1" parent="77e6c97f196da883-3" source="GCUTKhbAVa57AztuCdu1-102" target="GCUTKhbAVa57AztuCdu1-107">
          <mxGeometry relative="1" as="geometry" />
        </mxCell>
        <mxCell id="GCUTKhbAVa57AztuCdu1-102" value="Revisa las solicitudes y cambia el estado al correspondiente" style="rounded=1;whiteSpace=wrap;html=1;fillColor=#dae8fc;strokeColor=#6c8ebf;" vertex="1" parent="77e6c97f196da883-3">
          <mxGeometry x="250" y="730" width="120" height="60" as="geometry" />
        </mxCell>
        <mxCell id="GCUTKhbAVa57AztuCdu1-107" value="Fin" style="ellipse;whiteSpace=wrap;html=1;fillColor=#f8cecc;strokeColor=#b85450;" vertex="1" parent="77e6c97f196da883-3">
          <mxGeometry x="270" y="890" width="80" height="80" as="geometry" />
        </mxCell>
      </root>
    </mxGraphModel>
  </diagram>
</mxfile>
